<svg xmlns="http://www.w3.org/2000/svg" width="88.281" height="72.277" viewBox="0 0 88.281 72.277">
  <path id="Path_89" data-name="Path 89" d="M86.037-38.317H79.3V-73.653a5.234,5.234,0,0,0-1.71-3.871l0,0L47.661-104.736a5.2,5.2,0,0,0-3.523-1.369,5.2,5.2,0,0,0-3.527,1.373l0,0L10.692-77.528a5.236,5.236,0,0,0-1.714,3.875v35.336H2.244A2.244,2.244,0,0,0,0-36.073a2.244,2.244,0,0,0,2.244,2.244H86.037a2.244,2.244,0,0,0,2.244-2.244,2.244,2.244,0,0,0-2.244-2.244ZM13.467-73.653a.748.748,0,0,1,.244-.553h0l29.924-27.208a.742.742,0,0,1,.5-.2.743.743,0,0,1,.5.2h0L74.57-74.207a.751.751,0,0,1,.245.554v35.335H55.361v-21.7a2.244,2.244,0,0,0-2.244-2.244H35.161a2.244,2.244,0,0,0-2.244,2.244v21.7H13.467ZM50.872-38.317H37.405V-57.772H50.872Z" transform="translate(0 106.105)" fill="#fff"/>
</svg>
