<svg xmlns="http://www.w3.org/2000/svg" width="64.299" height="64.289" viewBox="0 0 64.299 64.289">
  <path id="Path_76" data-name="Path 76" d="M63.7-182.174,49.336-167.812a2.046,2.046,0,0,1-1.449.6,2.052,2.052,0,0,1-2.052-2.052,2.045,2.045,0,0,1,.6-1.449l10.86-10.86H23.937a2.052,2.052,0,0,1-2.052-2.052,2.052,2.052,0,0,1,2.052-2.052H57.294l-10.86-10.86a2.046,2.046,0,0,1-.6-1.453,2.052,2.052,0,0,1,2.052-2.052,2.045,2.045,0,0,1,1.453.6L63.7-185.075a2.045,2.045,0,0,1,.6,1.45A2.045,2.045,0,0,1,63.7-182.174Zm-34.289,26.59H4.787a.685.685,0,0,1-.684-.684v-54.714a.685.685,0,0,1,.684-.684H29.409a2.052,2.052,0,0,0,2.052-2.052,2.052,2.052,0,0,0-2.052-2.052H4.787A4.793,4.793,0,0,0,0-210.982v54.714a4.793,4.793,0,0,0,4.787,4.787H29.409a2.052,2.052,0,0,0,2.052-2.052A2.052,2.052,0,0,0,29.409-155.584Z" transform="translate(0 215.769)" fill="#fff"/>
</svg>
