<svg xmlns="http://www.w3.org/2000/svg" width="63.239" height="63.239" viewBox="0 0 63.239 63.239">
  <path id="Path_72" data-name="Path 72" d="M60.947-142.288a1.862,1.862,0,0,0-1.639,1.847,1.929,1.929,0,0,0,.014.23v-.009a27.454,27.454,0,0,1,.2,3.344v.019a27.7,27.7,0,0,1-7.6,19.1l.012-.013A24.177,24.177,0,0,0,39.7-127.446l-.169-.052a14.267,14.267,0,0,0,6.352-11.866,14.26,14.26,0,0,0-14.26-14.26,14.26,14.26,0,0,0-14.26,14.26,14.246,14.246,0,0,0,6.3,11.834l.051.032a24.2,24.2,0,0,0-12.344,9.636l-.057.093A27.777,27.777,0,0,1,3.72-136.891,27.884,27.884,0,0,1,31.6-164.776h.015c.864,0,1.736.04,2.591.119.051,0,.11.008.17.008a1.86,1.86,0,0,0,1.86-1.86,1.86,1.86,0,0,0-1.682-1.851h-.007c-.968-.089-1.954-.134-2.932-.134h-.015A31.605,31.605,0,0,0,0-136.891a31.522,31.522,0,0,0,10.276,23.323l.024.022a1.86,1.86,0,0,0,.359.323l.006,0a31.407,31.407,0,0,0,20.955,7.962,31.436,31.436,0,0,0,20.987-7.99l-.031.027a1.867,1.867,0,0,0,.361-.323l0,0a31.477,31.477,0,0,0,10.3-23.319v-.014h0a32.356,32.356,0,0,0-.24-3.94l.015.155a1.862,1.862,0,0,0-1.847-1.639,1.889,1.889,0,0,0-.23.014h.009ZM21.08-139.356a10.54,10.54,0,0,1,10.54-10.54,10.54,10.54,0,0,1,10.54,10.54,10.54,10.54,0,0,1-10.54,10.54,10.552,10.552,0,0,1-10.54-10.539Zm-6.993,24.165A20.49,20.49,0,0,1,31.619-125.1,20.457,20.457,0,0,1,49.1-115.281l.051.09a27.674,27.674,0,0,1-17.532,6.214,27.724,27.724,0,0,1-17.583-6.254l.05.04Z" transform="translate(0 168.496)" fill="#fff"/>
</svg>
